<?xml version="1.0" encoding="utf-8"?>
<!-- Generator: Adobe Illustrator 22.1.0, SVG Export Plug-In . SVG Version: 6.00 Build 0)  -->
<svg version="1.1" id="Layer_1" xmlns="http://www.w3.org/2000/svg" xmlns:xlink="http://www.w3.org/1999/xlink" x="0px" y="0px"
	 viewBox="0 0 83.7 34" style="enable-background:new 0 0 83.7 34;" xml:space="preserve">
<style type="text/css">
	.st0{fill:#0058A3;}
	.st1{fill:#FFDB00;}
</style>
<g>
	<path class="st0" d="M83.7,34H0V0h83.7L83.7,34L83.7,34z"/>
	<path class="st1" d="M1.6,17c0,8.2,16.9,15,40.2,15s40.2-6.8,40.2-15S65.2,2,41.9,2S1.6,8.8,1.6,17z"/>
	<path class="st0" d="M28.3,10.5c-0.2,0.4-0.2,0.7-0.2,1.1V16c0,0,2.4-3.1,3-3.9c0.4-0.6,0.9-1.3,0.9-1.7h7.9
		c-0.5,0.4-1.1,1-1.6,1.6c-0.4,0.5-2.9,3.5-2.9,3.5s3.6,5.5,4.1,6.2c0.3,0.4,0.6,0.7,0.9,1.1h-9.1c0-0.4-0.3-1.1-0.7-1.7
		s-2.5-3.7-2.5-3.7v4.3c0,0.4,0,0.7,0.2,1.1h-7.5c0.2-0.4,0.2-0.7,0.2-1.1V11.5c0-0.4,0-0.7-0.2-1.1H28.3z M56.2,10.5H41.7
		c0.2,0.4,0.2,0.7,0.2,1.1v10.3c0,0.4,0,0.7-0.2,1.1h14.6v-3.4c-0.4,0.2-0.7,0.2-1.1,0.2H49V18h5.9v-2.6H49v-1.6h6.1
		c0.4,0,0.7,0,1.1,0.2V10.5z M76.4,21.8c0.1,0.4,0.3,0.8,0.6,1.1h-7.9c0-0.4-0.1-0.7-0.2-1.1c0,0-0.1-0.3-0.3-0.7l-0.1-0.2H64
		l-0.1,0.2c0,0-0.1,0.3-0.3,0.7c-0.1,0.4-0.3,0.7-0.2,1.1h-6.2c0.3-0.3,0.4-0.7,0.6-1.1l3.7-10.3c0.1-0.4,0.3-0.7,0.2-1.1h10.5
		c-0.1,0.4,0.1,0.7,0.2,1.1C72.8,12.3,76.2,21.1,76.4,21.8 M67.5,18.3l-1.1-2.9c-0.1-0.3-0.2-0.5-0.2-0.8c0,0.3-0.1,0.6-0.2,0.8
		c0,0.1-0.5,1.4-1,2.9H67.5z M17,11.5c0-0.4,0-0.7,0.2-1.1H9c0.2,0.4,0.2,0.7,0.2,1.1v10.3c0,0.4,0,0.7-0.2,1.1h8.2
		C17,22.5,17,22.2,17,21.8V11.5z M73.9,11.4c0,0.9,0.7,1.7,1.6,1.7c0.9,0,1.7-0.7,1.7-1.6c0,0,0-0.1,0-0.1c0-0.9-0.7-1.6-1.6-1.6
		c0,0,0,0-0.1,0c-0.9,0-1.6,0.6-1.6,1.5C73.9,11.4,73.9,11.4,73.9,11.4 M76.8,11.4c0,0.7-0.6,1.3-1.3,1.3c-0.7,0-1.3-0.6-1.3-1.3
		c0,0,0,0,0-0.1c0-0.7,0.5-1.3,1.2-1.3c0,0,0.1,0,0.1,0C76.2,10.1,76.8,10.7,76.8,11.4C76.8,11.4,76.8,11.4,76.8,11.4 M76.3,12.4H76
		l-0.4-0.7h-0.4v0.7h-0.3v-2h0.7c0.3,0,0.6,0.3,0.6,0.6c0,0.2-0.1,0.5-0.3,0.6L76.3,12.4z M75.6,11.4c0.2,0,0.4-0.1,0.4-0.3
		s-0.1-0.4-0.3-0.4c0,0,0,0,0,0h-0.4v0.7L75.6,11.4"/>
</g>
</svg>
